<svg xmlns="http://www.w3.org/2000/svg" width="512" height="512" viewBox="0 0 512 512">
  <defs>
    <radialGradient id="bg" cx="50%" cy="42%" r="72%">
      <stop offset="0" stop-color="#161618"/>
      <stop offset="1" stop-color="#000000"/>
    </radialGradient>
    <radialGradient id="glowV" cx="50%" cy="50%" r="50%">
      <stop offset="0" stop-color="#FFFFFF" stop-opacity="0.1"/>
      <stop offset="1" stop-color="#FFFFFF" stop-opacity="0"/>
    </radialGradient>
    
    
    <linearGradient id="barGrad" gradientUnits="userSpaceOnUse" x1="0" y1="75.8" x2="0" y2="391.2"><stop offset="0" stop-color="#FFFFFF"/><stop offset="1" stop-color="#FFFFFF"/></linearGradient>
    <filter id="soft" x="-40%" y="-40%" width="180%" height="180%">
      <feGaussianBlur stdDeviation="9"/>
    </filter>
  </defs>
  <rect width="512" height="512" fill="#000000"/>
  <circle cx="256" cy="256" r="256" fill="url(#bg)"/>
  <circle cx="256" cy="232" r="190" fill="url(#glowV)"/>
  <circle cx="256" cy="256" r="230" fill="none" stroke="#FFFFFF" stroke-width="2" stroke-opacity="0.14"/>
       <circle cx="256" cy="256" r="210" fill="none" stroke="#FFFFFF" stroke-width="1" stroke-opacity="0.07"/>
  <g filter="url(#soft)" opacity="0.45"><g transform="translate(67.730 84.244) scale(0.73557)"><g fill="url(#barGrad)"><rect x="71.2" y="183.9" width="58.6" height="207.3" rx="29.3" ry="29.3"/><rect x="174.8" y="75.8" width="58.6" height="315.4" rx="29.3" ry="29.3"/><rect x="278.5" y="138.9" width="58.6" height="252.3" rx="29.3" ry="29.3"/><rect x="382.1" y="238" width="58.6" height="153.2" rx="29.3" ry="29.3"/></g></g></g>
  <g transform="translate(67.730 84.244) scale(0.73557)"><g fill="url(#barGrad)"><rect x="71.2" y="183.9" width="58.6" height="207.3" rx="29.3" ry="29.3"/><rect x="174.8" y="75.8" width="58.6" height="315.4" rx="29.3" ry="29.3"/><rect x="278.5" y="138.9" width="58.6" height="252.3" rx="29.3" ry="29.3"/><rect x="382.1" y="238" width="58.6" height="153.2" rx="29.3" ry="29.3"/></g></g>
</svg>